<mxfile host="Electron" modified="2024-08-27T08:50:29.468Z" agent="Mozilla/5.0 (X11; Linux x86_64) AppleWebKit/537.36 (KHTML, like Gecko) draw.io/24.2.5 Chrome/120.0.6099.109 Electron/28.1.0 Safari/537.36" etag="gzab_v5yOBgVvZnFOX1V" version="24.2.5" type="device">
  <diagram id="C5RBs43oDa-KdzZeNtuy" name="Page-1">
    <mxGraphModel dx="1195" dy="723" grid="1" gridSize="10" guides="1" tooltips="1" connect="1" arrows="1" fold="1" page="1" pageScale="1" pageWidth="827" pageHeight="1169" math="0" shadow="0">
      <root>
        <mxCell id="WIyWlLk6GJQsqaUBKTNV-0" />
        <mxCell id="WIyWlLk6GJQsqaUBKTNV-1" parent="WIyWlLk6GJQsqaUBKTNV-0" />
        <mxCell id="mHsLTS2BFH0GCk8jSrOb-11" value="" style="whiteSpace=wrap;html=1;fillColor=#dae8fc;strokeColor=#6c8ebf;align=center;" parent="WIyWlLk6GJQsqaUBKTNV-1" vertex="1">
          <mxGeometry x="440" y="71" width="160" height="140" as="geometry" />
        </mxCell>
        <mxCell id="GIOYNEquK1uGMJqrIwxX-68" style="edgeStyle=orthogonalEdgeStyle;rounded=0;orthogonalLoop=1;jettySize=auto;html=1;entryX=0.5;entryY=0;entryDx=0;entryDy=0;" edge="1" parent="WIyWlLk6GJQsqaUBKTNV-1" source="zkfFHV4jXpPFQw0GAbJ--0" target="GIOYNEquK1uGMJqrIwxX-12">
          <mxGeometry relative="1" as="geometry">
            <Array as="points">
              <mxPoint x="320" y="270" />
              <mxPoint x="160" y="270" />
            </Array>
          </mxGeometry>
        </mxCell>
        <mxCell id="zkfFHV4jXpPFQw0GAbJ--0" value="controller" style="swimlane;fontStyle=2;align=center;verticalAlign=top;childLayout=stackLayout;horizontal=1;startSize=26;horizontalStack=0;resizeParent=1;resizeLast=0;collapsible=1;marginBottom=0;rounded=0;shadow=0;strokeWidth=1;" parent="WIyWlLk6GJQsqaUBKTNV-1" vertex="1">
          <mxGeometry x="240" width="160" height="250" as="geometry">
            <mxRectangle x="230" y="140" width="160" height="26" as="alternateBounds" />
          </mxGeometry>
        </mxCell>
        <mxCell id="mHsLTS2BFH0GCk8jSrOb-51" value="mode" style="text;html=1;align=left;verticalAlign=middle;whiteSpace=wrap;rounded=0;" parent="zkfFHV4jXpPFQw0GAbJ--0" vertex="1">
          <mxGeometry y="26" width="160" height="24" as="geometry" />
        </mxCell>
        <mxCell id="GIOYNEquK1uGMJqrIwxX-55" value="current_algorithm" style="text;html=1;align=left;verticalAlign=middle;whiteSpace=wrap;rounded=0;" vertex="1" parent="zkfFHV4jXpPFQw0GAbJ--0">
          <mxGeometry y="50" width="160" height="24" as="geometry" />
        </mxCell>
        <mxCell id="zkfFHV4jXpPFQw0GAbJ--4" value="" style="line;html=1;strokeWidth=1;align=left;verticalAlign=middle;spacingTop=-1;spacingLeft=3;spacingRight=3;rotatable=0;labelPosition=right;points=[];portConstraint=eastwest;" parent="zkfFHV4jXpPFQw0GAbJ--0" vertex="1">
          <mxGeometry y="74" width="160" height="8" as="geometry" />
        </mxCell>
        <mxCell id="GIOYNEquK1uGMJqrIwxX-51" value="process()" style="text;html=1;align=left;verticalAlign=middle;whiteSpace=wrap;rounded=0;" vertex="1" parent="zkfFHV4jXpPFQw0GAbJ--0">
          <mxGeometry y="82" width="160" height="24" as="geometry" />
        </mxCell>
        <mxCell id="GIOYNEquK1uGMJqrIwxX-49" value="set_mode()" style="text;html=1;align=left;verticalAlign=middle;whiteSpace=wrap;rounded=0;" vertex="1" parent="zkfFHV4jXpPFQw0GAbJ--0">
          <mxGeometry y="106" width="160" height="24" as="geometry" />
        </mxCell>
        <mxCell id="GIOYNEquK1uGMJqrIwxX-50" value="set_local()" style="text;html=1;align=left;verticalAlign=middle;whiteSpace=wrap;rounded=0;" vertex="1" parent="zkfFHV4jXpPFQw0GAbJ--0">
          <mxGeometry y="130" width="160" height="24" as="geometry" />
        </mxCell>
        <mxCell id="GIOYNEquK1uGMJqrIwxX-56" value="manage_algorithm()" style="text;html=1;align=left;verticalAlign=middle;whiteSpace=wrap;rounded=0;" vertex="1" parent="zkfFHV4jXpPFQw0GAbJ--0">
          <mxGeometry y="154" width="160" height="24" as="geometry" />
        </mxCell>
        <mxCell id="GIOYNEquK1uGMJqrIwxX-11" value="stop_algorithm()" style="text;html=1;align=left;verticalAlign=middle;whiteSpace=wrap;rounded=0;" vertex="1" parent="zkfFHV4jXpPFQw0GAbJ--0">
          <mxGeometry y="178" width="160" height="24" as="geometry" />
        </mxCell>
        <mxCell id="GIOYNEquK1uGMJqrIwxX-4" value="forward_algorithm()" style="text;html=1;align=left;verticalAlign=middle;whiteSpace=wrap;rounded=0;" vertex="1" parent="zkfFHV4jXpPFQw0GAbJ--0">
          <mxGeometry y="202" width="160" height="24" as="geometry" />
        </mxCell>
        <mxCell id="GIOYNEquK1uGMJqrIwxX-5" value="backward_algorithm()" style="text;html=1;align=left;verticalAlign=middle;whiteSpace=wrap;rounded=0;" vertex="1" parent="zkfFHV4jXpPFQw0GAbJ--0">
          <mxGeometry y="226" width="160" height="24" as="geometry" />
        </mxCell>
        <mxCell id="mHsLTS2BFH0GCk8jSrOb-56" style="edgeStyle=orthogonalEdgeStyle;rounded=0;orthogonalLoop=1;jettySize=auto;html=1;entryX=0.5;entryY=0;entryDx=0;entryDy=0;" parent="WIyWlLk6GJQsqaUBKTNV-1" source="zkfFHV4jXpPFQw0GAbJ--6" target="mHsLTS2BFH0GCk8jSrOb-52" edge="1">
          <mxGeometry relative="1" as="geometry" />
        </mxCell>
        <mxCell id="mHsLTS2BFH0GCk8jSrOb-57" style="edgeStyle=orthogonalEdgeStyle;rounded=0;orthogonalLoop=1;jettySize=auto;html=1;entryX=0.5;entryY=0;entryDx=0;entryDy=0;" parent="WIyWlLk6GJQsqaUBKTNV-1" source="zkfFHV4jXpPFQw0GAbJ--6" target="mHsLTS2BFH0GCk8jSrOb-54" edge="1">
          <mxGeometry relative="1" as="geometry" />
        </mxCell>
        <mxCell id="mHsLTS2BFH0GCk8jSrOb-58" value="creates" style="edgeLabel;html=1;align=center;verticalAlign=middle;resizable=0;points=[];" parent="mHsLTS2BFH0GCk8jSrOb-57" vertex="1" connectable="0">
          <mxGeometry x="-0.7429" relative="1" as="geometry">
            <mxPoint as="offset" />
          </mxGeometry>
        </mxCell>
        <mxCell id="zkfFHV4jXpPFQw0GAbJ--6" value="graph_manager" style="swimlane;fontStyle=0;align=center;verticalAlign=top;childLayout=stackLayout;horizontal=1;startSize=26;horizontalStack=0;resizeParent=1;resizeLast=0;collapsible=1;marginBottom=0;rounded=0;shadow=0;strokeWidth=1;" parent="WIyWlLk6GJQsqaUBKTNV-1" vertex="1">
          <mxGeometry x="240" y="320" width="160" height="40" as="geometry">
            <mxRectangle x="130" y="380" width="160" height="26" as="alternateBounds" />
          </mxGeometry>
        </mxCell>
        <mxCell id="zkfFHV4jXpPFQw0GAbJ--9" value="" style="line;html=1;strokeWidth=1;align=left;verticalAlign=middle;spacingTop=-1;spacingLeft=3;spacingRight=3;rotatable=0;labelPosition=right;points=[];portConstraint=eastwest;" parent="zkfFHV4jXpPFQw0GAbJ--6" vertex="1">
          <mxGeometry y="26" width="160" height="8" as="geometry" />
        </mxCell>
        <mxCell id="mHsLTS2BFH0GCk8jSrOb-44" style="edgeStyle=orthogonalEdgeStyle;rounded=0;orthogonalLoop=1;jettySize=auto;html=1;entryX=0.5;entryY=0;entryDx=0;entryDy=0;" parent="WIyWlLk6GJQsqaUBKTNV-1" target="mHsLTS2BFH0GCk8jSrOb-38" edge="1">
          <mxGeometry relative="1" as="geometry">
            <mxPoint x="520" y="360" as="sourcePoint" />
          </mxGeometry>
        </mxCell>
        <mxCell id="mHsLTS2BFH0GCk8jSrOb-47" style="edgeStyle=orthogonalEdgeStyle;rounded=0;orthogonalLoop=1;jettySize=auto;html=1;entryX=0.5;entryY=0;entryDx=0;entryDy=0;" parent="WIyWlLk6GJQsqaUBKTNV-1" target="mHsLTS2BFH0GCk8jSrOb-42" edge="1">
          <mxGeometry relative="1" as="geometry">
            <mxPoint x="520" y="360" as="sourcePoint" />
          </mxGeometry>
        </mxCell>
        <mxCell id="GIOYNEquK1uGMJqrIwxX-16" style="edgeStyle=orthogonalEdgeStyle;rounded=0;orthogonalLoop=1;jettySize=auto;html=1;entryX=0;entryY=0.5;entryDx=0;entryDy=0;" edge="1" parent="WIyWlLk6GJQsqaUBKTNV-1" source="mHsLTS2BFH0GCk8jSrOb-6" target="GIOYNEquK1uGMJqrIwxX-4">
          <mxGeometry relative="1" as="geometry" />
        </mxCell>
        <mxCell id="GIOYNEquK1uGMJqrIwxX-17" value="signals" style="edgeLabel;html=1;align=center;verticalAlign=middle;resizable=0;points=[];" vertex="1" connectable="0" parent="GIOYNEquK1uGMJqrIwxX-16">
          <mxGeometry x="-0.2607" relative="1" as="geometry">
            <mxPoint as="offset" />
          </mxGeometry>
        </mxCell>
        <mxCell id="mHsLTS2BFH0GCk8jSrOb-6" value="upper_gui (interactive gui)" style="swimlane;fontStyle=2;align=center;verticalAlign=top;childLayout=stackLayout;horizontal=1;startSize=26;horizontalStack=0;resizeParent=1;resizeLast=0;collapsible=1;marginBottom=0;rounded=0;shadow=0;strokeWidth=1;" parent="WIyWlLk6GJQsqaUBKTNV-1" vertex="1">
          <mxGeometry x="20" y="194" width="160" height="40" as="geometry">
            <mxRectangle x="230" y="140" width="160" height="26" as="alternateBounds" />
          </mxGeometry>
        </mxCell>
        <mxCell id="mHsLTS2BFH0GCk8jSrOb-7" value="" style="line;html=1;strokeWidth=1;align=left;verticalAlign=middle;spacingTop=-1;spacingLeft=3;spacingRight=3;rotatable=0;labelPosition=right;points=[];portConstraint=eastwest;" parent="mHsLTS2BFH0GCk8jSrOb-6" vertex="1">
          <mxGeometry y="26" width="160" height="8" as="geometry" />
        </mxCell>
        <mxCell id="mHsLTS2BFH0GCk8jSrOb-10" value="Groups" style="rounded=0;whiteSpace=wrap;html=1;" parent="WIyWlLk6GJQsqaUBKTNV-1" vertex="1">
          <mxGeometry x="470" y="101" width="100" height="28" as="geometry" />
        </mxCell>
        <mxCell id="mHsLTS2BFH0GCk8jSrOb-12" value="GLOBAL" style="text;html=1;align=center;verticalAlign=middle;whiteSpace=wrap;rounded=0;" parent="WIyWlLk6GJQsqaUBKTNV-1" vertex="1">
          <mxGeometry x="490" y="71" width="60" height="30" as="geometry" />
        </mxCell>
        <mxCell id="mHsLTS2BFH0GCk8jSrOb-13" value="constans.gd" style="rounded=0;whiteSpace=wrap;html=1;" parent="WIyWlLk6GJQsqaUBKTNV-1" vertex="1">
          <mxGeometry x="470" y="141" width="100" height="28" as="geometry" />
        </mxCell>
        <mxCell id="mHsLTS2BFH0GCk8jSrOb-14" value="misc.gd" style="rounded=0;whiteSpace=wrap;html=1;" parent="WIyWlLk6GJQsqaUBKTNV-1" vertex="1">
          <mxGeometry x="470" y="177" width="100" height="28" as="geometry" />
        </mxCell>
        <mxCell id="mHsLTS2BFH0GCk8jSrOb-38" value="bfs" style="swimlane;fontStyle=0;align=center;verticalAlign=top;childLayout=stackLayout;horizontal=1;startSize=26;horizontalStack=0;resizeParent=1;resizeLast=0;collapsible=1;marginBottom=0;rounded=0;shadow=0;strokeWidth=1;" parent="WIyWlLk6GJQsqaUBKTNV-1" vertex="1">
          <mxGeometry x="420" y="400" width="60" height="130" as="geometry">
            <mxRectangle x="340" y="380" width="170" height="26" as="alternateBounds" />
          </mxGeometry>
        </mxCell>
        <mxCell id="mHsLTS2BFH0GCk8jSrOb-39" value="" style="line;html=1;strokeWidth=1;align=left;verticalAlign=middle;spacingTop=-1;spacingLeft=3;spacingRight=3;rotatable=0;labelPosition=right;points=[];portConstraint=eastwest;" parent="mHsLTS2BFH0GCk8jSrOb-38" vertex="1">
          <mxGeometry y="26" width="60" height="8" as="geometry" />
        </mxCell>
        <mxCell id="GIOYNEquK1uGMJqrIwxX-57" value="algorithm()" style="text;html=1;align=left;verticalAlign=middle;whiteSpace=wrap;rounded=0;fontSize=10;" vertex="1" parent="mHsLTS2BFH0GCk8jSrOb-38">
          <mxGeometry y="34" width="60" height="24" as="geometry" />
        </mxCell>
        <mxCell id="GIOYNEquK1uGMJqrIwxX-28" value="stop()" style="text;html=1;align=left;verticalAlign=middle;whiteSpace=wrap;rounded=0;fontSize=10;" vertex="1" parent="mHsLTS2BFH0GCk8jSrOb-38">
          <mxGeometry y="58" width="60" height="24" as="geometry" />
        </mxCell>
        <mxCell id="GIOYNEquK1uGMJqrIwxX-26" value="forward()" style="text;html=1;align=left;verticalAlign=middle;whiteSpace=wrap;rounded=0;fontSize=10;" vertex="1" parent="mHsLTS2BFH0GCk8jSrOb-38">
          <mxGeometry y="82" width="60" height="24" as="geometry" />
        </mxCell>
        <mxCell id="GIOYNEquK1uGMJqrIwxX-27" value="backward()" style="text;html=1;align=left;verticalAlign=middle;whiteSpace=wrap;rounded=0;fontSize=10;" vertex="1" parent="mHsLTS2BFH0GCk8jSrOb-38">
          <mxGeometry y="106" width="60" height="24" as="geometry" />
        </mxCell>
        <mxCell id="GIOYNEquK1uGMJqrIwxX-63" style="edgeStyle=orthogonalEdgeStyle;rounded=0;orthogonalLoop=1;jettySize=auto;html=1;entryX=0.5;entryY=0;entryDx=0;entryDy=0;" edge="1" parent="WIyWlLk6GJQsqaUBKTNV-1" source="mHsLTS2BFH0GCk8jSrOb-40" target="GIOYNEquK1uGMJqrIwxX-39">
          <mxGeometry relative="1" as="geometry" />
        </mxCell>
        <mxCell id="mHsLTS2BFH0GCk8jSrOb-40" value="dfs" style="swimlane;fontStyle=0;align=center;verticalAlign=top;childLayout=stackLayout;horizontal=1;startSize=26;horizontalStack=0;resizeParent=1;resizeLast=0;collapsible=1;marginBottom=0;rounded=0;shadow=0;strokeWidth=1;" parent="WIyWlLk6GJQsqaUBKTNV-1" vertex="1">
          <mxGeometry x="490" y="400" width="60" height="130" as="geometry">
            <mxRectangle x="340" y="380" width="170" height="26" as="alternateBounds" />
          </mxGeometry>
        </mxCell>
        <mxCell id="mHsLTS2BFH0GCk8jSrOb-41" value="" style="line;html=1;strokeWidth=1;align=left;verticalAlign=middle;spacingTop=-1;spacingLeft=3;spacingRight=3;rotatable=0;labelPosition=right;points=[];portConstraint=eastwest;" parent="mHsLTS2BFH0GCk8jSrOb-40" vertex="1">
          <mxGeometry y="26" width="60" height="8" as="geometry" />
        </mxCell>
        <mxCell id="GIOYNEquK1uGMJqrIwxX-58" value="algorithm()" style="text;html=1;align=left;verticalAlign=middle;whiteSpace=wrap;rounded=0;fontSize=10;" vertex="1" parent="mHsLTS2BFH0GCk8jSrOb-40">
          <mxGeometry y="34" width="60" height="24" as="geometry" />
        </mxCell>
        <mxCell id="GIOYNEquK1uGMJqrIwxX-31" value="stop()" style="text;html=1;align=left;verticalAlign=middle;whiteSpace=wrap;rounded=0;fontSize=10;" vertex="1" parent="mHsLTS2BFH0GCk8jSrOb-40">
          <mxGeometry y="58" width="60" height="24" as="geometry" />
        </mxCell>
        <mxCell id="GIOYNEquK1uGMJqrIwxX-29" value="forward()" style="text;html=1;align=left;verticalAlign=middle;whiteSpace=wrap;rounded=0;fontSize=10;" vertex="1" parent="mHsLTS2BFH0GCk8jSrOb-40">
          <mxGeometry y="82" width="60" height="24" as="geometry" />
        </mxCell>
        <mxCell id="GIOYNEquK1uGMJqrIwxX-30" value="backward()" style="text;html=1;align=left;verticalAlign=middle;whiteSpace=wrap;rounded=0;fontSize=10;" vertex="1" parent="mHsLTS2BFH0GCk8jSrOb-40">
          <mxGeometry y="106" width="60" height="24" as="geometry" />
        </mxCell>
        <mxCell id="GIOYNEquK1uGMJqrIwxX-64" style="edgeStyle=orthogonalEdgeStyle;rounded=0;orthogonalLoop=1;jettySize=auto;html=1;entryX=0.5;entryY=0;entryDx=0;entryDy=0;" edge="1" parent="WIyWlLk6GJQsqaUBKTNV-1" source="mHsLTS2BFH0GCk8jSrOb-42" target="GIOYNEquK1uGMJqrIwxX-41">
          <mxGeometry relative="1" as="geometry" />
        </mxCell>
        <mxCell id="mHsLTS2BFH0GCk8jSrOb-42" value="..." style="swimlane;fontStyle=0;align=center;verticalAlign=top;childLayout=stackLayout;horizontal=1;startSize=26;horizontalStack=0;resizeParent=1;resizeLast=0;collapsible=1;marginBottom=0;rounded=0;shadow=0;strokeWidth=1;" parent="WIyWlLk6GJQsqaUBKTNV-1" vertex="1">
          <mxGeometry x="560" y="400" width="60" height="130" as="geometry">
            <mxRectangle x="340" y="380" width="170" height="26" as="alternateBounds" />
          </mxGeometry>
        </mxCell>
        <mxCell id="mHsLTS2BFH0GCk8jSrOb-43" value="" style="line;html=1;strokeWidth=1;align=left;verticalAlign=middle;spacingTop=-1;spacingLeft=3;spacingRight=3;rotatable=0;labelPosition=right;points=[];portConstraint=eastwest;" parent="mHsLTS2BFH0GCk8jSrOb-42" vertex="1">
          <mxGeometry y="26" width="60" height="8" as="geometry" />
        </mxCell>
        <mxCell id="GIOYNEquK1uGMJqrIwxX-59" value="algorithm()" style="text;html=1;align=left;verticalAlign=middle;whiteSpace=wrap;rounded=0;fontSize=10;" vertex="1" parent="mHsLTS2BFH0GCk8jSrOb-42">
          <mxGeometry y="34" width="60" height="24" as="geometry" />
        </mxCell>
        <mxCell id="GIOYNEquK1uGMJqrIwxX-34" value="stop()" style="text;html=1;align=left;verticalAlign=middle;whiteSpace=wrap;rounded=0;fontSize=10;" vertex="1" parent="mHsLTS2BFH0GCk8jSrOb-42">
          <mxGeometry y="58" width="60" height="24" as="geometry" />
        </mxCell>
        <mxCell id="GIOYNEquK1uGMJqrIwxX-32" value="forward()" style="text;html=1;align=left;verticalAlign=middle;whiteSpace=wrap;rounded=0;fontSize=10;" vertex="1" parent="mHsLTS2BFH0GCk8jSrOb-42">
          <mxGeometry y="82" width="60" height="24" as="geometry" />
        </mxCell>
        <mxCell id="GIOYNEquK1uGMJqrIwxX-33" value="backward()" style="text;html=1;align=left;verticalAlign=middle;whiteSpace=wrap;rounded=0;fontSize=10;" vertex="1" parent="mHsLTS2BFH0GCk8jSrOb-42">
          <mxGeometry y="106" width="60" height="24" as="geometry" />
        </mxCell>
        <mxCell id="mHsLTS2BFH0GCk8jSrOb-52" value="vertex" style="swimlane;fontStyle=0;align=center;verticalAlign=top;childLayout=stackLayout;horizontal=1;startSize=26;horizontalStack=0;resizeParent=1;resizeLast=0;collapsible=1;marginBottom=0;rounded=0;shadow=0;strokeWidth=1;" parent="WIyWlLk6GJQsqaUBKTNV-1" vertex="1">
          <mxGeometry x="250" y="400" width="60" height="40" as="geometry">
            <mxRectangle x="340" y="380" width="170" height="26" as="alternateBounds" />
          </mxGeometry>
        </mxCell>
        <mxCell id="mHsLTS2BFH0GCk8jSrOb-53" value="" style="line;html=1;strokeWidth=1;align=left;verticalAlign=middle;spacingTop=-1;spacingLeft=3;spacingRight=3;rotatable=0;labelPosition=right;points=[];portConstraint=eastwest;" parent="mHsLTS2BFH0GCk8jSrOb-52" vertex="1">
          <mxGeometry y="26" width="60" height="8" as="geometry" />
        </mxCell>
        <mxCell id="mHsLTS2BFH0GCk8jSrOb-54" value="edge" style="swimlane;fontStyle=0;align=center;verticalAlign=top;childLayout=stackLayout;horizontal=1;startSize=26;horizontalStack=0;resizeParent=1;resizeLast=0;collapsible=1;marginBottom=0;rounded=0;shadow=0;strokeWidth=1;" parent="WIyWlLk6GJQsqaUBKTNV-1" vertex="1">
          <mxGeometry x="330" y="400" width="60" height="40" as="geometry">
            <mxRectangle x="340" y="380" width="170" height="26" as="alternateBounds" />
          </mxGeometry>
        </mxCell>
        <mxCell id="mHsLTS2BFH0GCk8jSrOb-55" value="" style="line;html=1;strokeWidth=1;align=left;verticalAlign=middle;spacingTop=-1;spacingLeft=3;spacingRight=3;rotatable=0;labelPosition=right;points=[];portConstraint=eastwest;" parent="mHsLTS2BFH0GCk8jSrOb-54" vertex="1">
          <mxGeometry y="26" width="60" height="8" as="geometry" />
        </mxCell>
        <mxCell id="GIOYNEquK1uGMJqrIwxX-12" value="own_gui" style="swimlane;fontStyle=0;align=center;verticalAlign=top;childLayout=stackLayout;horizontal=1;startSize=26;horizontalStack=0;resizeParent=1;resizeLast=0;collapsible=1;marginBottom=0;rounded=0;shadow=0;strokeWidth=1;" vertex="1" parent="WIyWlLk6GJQsqaUBKTNV-1">
          <mxGeometry x="120" y="320" width="80" height="40" as="geometry">
            <mxRectangle x="130" y="380" width="160" height="26" as="alternateBounds" />
          </mxGeometry>
        </mxCell>
        <mxCell id="GIOYNEquK1uGMJqrIwxX-13" value="" style="line;html=1;strokeWidth=1;align=left;verticalAlign=middle;spacingTop=-1;spacingLeft=3;spacingRight=3;rotatable=0;labelPosition=right;points=[];portConstraint=eastwest;" vertex="1" parent="GIOYNEquK1uGMJqrIwxX-12">
          <mxGeometry y="26" width="80" height="8" as="geometry" />
        </mxCell>
        <mxCell id="GIOYNEquK1uGMJqrIwxX-35" value="own_gui" style="swimlane;fontStyle=0;align=center;verticalAlign=top;childLayout=stackLayout;horizontal=1;startSize=26;horizontalStack=0;resizeParent=1;resizeLast=0;collapsible=1;marginBottom=0;rounded=0;shadow=0;strokeWidth=1;" vertex="1" parent="WIyWlLk6GJQsqaUBKTNV-1">
          <mxGeometry x="420" y="565" width="60" height="40" as="geometry">
            <mxRectangle x="420" y="545" width="160" height="26" as="alternateBounds" />
          </mxGeometry>
        </mxCell>
        <mxCell id="GIOYNEquK1uGMJqrIwxX-36" value="" style="line;html=1;strokeWidth=1;align=left;verticalAlign=middle;spacingTop=-1;spacingLeft=3;spacingRight=3;rotatable=0;labelPosition=right;points=[];portConstraint=eastwest;" vertex="1" parent="GIOYNEquK1uGMJqrIwxX-35">
          <mxGeometry y="26" width="60" height="8" as="geometry" />
        </mxCell>
        <mxCell id="GIOYNEquK1uGMJqrIwxX-39" value="own_gui" style="swimlane;fontStyle=0;align=center;verticalAlign=top;childLayout=stackLayout;horizontal=1;startSize=26;horizontalStack=0;resizeParent=1;resizeLast=0;collapsible=1;marginBottom=0;rounded=0;shadow=0;strokeWidth=1;" vertex="1" parent="WIyWlLk6GJQsqaUBKTNV-1">
          <mxGeometry x="490" y="565" width="60" height="40" as="geometry">
            <mxRectangle x="130" y="380" width="160" height="26" as="alternateBounds" />
          </mxGeometry>
        </mxCell>
        <mxCell id="GIOYNEquK1uGMJqrIwxX-40" value="" style="line;html=1;strokeWidth=1;align=left;verticalAlign=middle;spacingTop=-1;spacingLeft=3;spacingRight=3;rotatable=0;labelPosition=right;points=[];portConstraint=eastwest;" vertex="1" parent="GIOYNEquK1uGMJqrIwxX-39">
          <mxGeometry y="26" width="60" height="8" as="geometry" />
        </mxCell>
        <mxCell id="GIOYNEquK1uGMJqrIwxX-41" value="own_gui" style="swimlane;fontStyle=0;align=center;verticalAlign=top;childLayout=stackLayout;horizontal=1;startSize=26;horizontalStack=0;resizeParent=1;resizeLast=0;collapsible=1;marginBottom=0;rounded=0;shadow=0;strokeWidth=1;" vertex="1" parent="WIyWlLk6GJQsqaUBKTNV-1">
          <mxGeometry x="560" y="565" width="60" height="40" as="geometry">
            <mxRectangle x="130" y="380" width="160" height="26" as="alternateBounds" />
          </mxGeometry>
        </mxCell>
        <mxCell id="GIOYNEquK1uGMJqrIwxX-42" value="" style="line;html=1;strokeWidth=1;align=left;verticalAlign=middle;spacingTop=-1;spacingLeft=3;spacingRight=3;rotatable=0;labelPosition=right;points=[];portConstraint=eastwest;" vertex="1" parent="GIOYNEquK1uGMJqrIwxX-41">
          <mxGeometry y="26" width="60" height="8" as="geometry" />
        </mxCell>
        <mxCell id="GIOYNEquK1uGMJqrIwxX-54" style="edgeStyle=orthogonalEdgeStyle;rounded=0;orthogonalLoop=1;jettySize=auto;html=1;entryX=0.5;entryY=0;entryDx=0;entryDy=0;" edge="1" parent="WIyWlLk6GJQsqaUBKTNV-1" source="GIOYNEquK1uGMJqrIwxX-52" target="mHsLTS2BFH0GCk8jSrOb-40">
          <mxGeometry relative="1" as="geometry" />
        </mxCell>
        <mxCell id="GIOYNEquK1uGMJqrIwxX-52" value="algorithms" style="rounded=0;whiteSpace=wrap;html=1;" vertex="1" parent="WIyWlLk6GJQsqaUBKTNV-1">
          <mxGeometry x="460" y="320" width="120" height="20" as="geometry" />
        </mxCell>
        <mxCell id="GIOYNEquK1uGMJqrIwxX-61" style="edgeStyle=orthogonalEdgeStyle;rounded=0;orthogonalLoop=1;jettySize=auto;html=1;entryX=0.5;entryY=0;entryDx=0;entryDy=0;" edge="1" parent="WIyWlLk6GJQsqaUBKTNV-1" source="GIOYNEquK1uGMJqrIwxX-27" target="GIOYNEquK1uGMJqrIwxX-35">
          <mxGeometry relative="1" as="geometry" />
        </mxCell>
        <mxCell id="GIOYNEquK1uGMJqrIwxX-66" style="edgeStyle=orthogonalEdgeStyle;rounded=0;orthogonalLoop=1;jettySize=auto;html=1;entryX=0.5;entryY=0;entryDx=0;entryDy=0;" edge="1" parent="WIyWlLk6GJQsqaUBKTNV-1" source="GIOYNEquK1uGMJqrIwxX-5" target="zkfFHV4jXpPFQw0GAbJ--6">
          <mxGeometry relative="1" as="geometry" />
        </mxCell>
        <mxCell id="GIOYNEquK1uGMJqrIwxX-67" style="edgeStyle=orthogonalEdgeStyle;rounded=0;orthogonalLoop=1;jettySize=auto;html=1;entryX=0.5;entryY=0;entryDx=0;entryDy=0;fontStyle=4" edge="1" parent="WIyWlLk6GJQsqaUBKTNV-1" source="GIOYNEquK1uGMJqrIwxX-5" target="GIOYNEquK1uGMJqrIwxX-52">
          <mxGeometry relative="1" as="geometry">
            <Array as="points">
              <mxPoint x="320" y="270" />
              <mxPoint x="520" y="270" />
            </Array>
          </mxGeometry>
        </mxCell>
      </root>
    </mxGraphModel>
  </diagram>
</mxfile>
